<svg class="svg-icon" style="width: 1em; height: 1em;vertical-align: middle;fill: white;overflow: hidden;" viewBox="0 0 1024 1024" version="1.1" xmlns="http://www.w3.org/2000/svg"><path d="M458.496 84.608v854.144c0 11.072-14.528 20.032-32.448 20.032s-32.448-9.024-32.448-20.032V132.992l-281.728 174.08s-23.232 6.08-39.296-7.296c-14.4-12.096 0.96-25.664 0.96-25.664l329.536-203.648a48.512 48.512 0 0 1 35.392-4.352c12.096 3.072 20.032 10.432 20.032 18.496m0 0zM565.504 84.544v854.144c0 11.072 14.528 20.032 32.448 20.032s32.448-8.96 32.448-20.032V132.928l281.728 174.08s23.232 6.08 39.232-7.296c14.464-12.032-0.96-25.664-0.96-25.664L620.864 70.4a47.808 47.808 0 0 0-35.392-4.352c-12.032 3.072-19.968 10.432-19.968 18.496m0 0z"  /></svg>